<svg width="239" height="214" viewBox="0 0 239 214" fill="none" xmlns="http://www.w3.org/2000/svg">
<path d="M51.7269 4.60066L57.2689 15.6463C57.9708 17.041 59.3234 18.0082 60.8807 18.2325L73.266 20.0056C77.2068 20.5663 78.7787 25.3322 75.9273 28.0656L66.9637 36.6652C65.8304 37.7515 65.3186 39.3144 65.5818 40.8493L67.6948 52.9883C68.3674 56.85 64.2512 59.7937 60.7271 57.9714L49.6505 52.2384C48.2541 51.5165 46.5798 51.5165 45.1833 52.2384L34.1067 57.9714C30.5826 59.7937 26.4664 56.85 27.139 52.9883L29.252 40.8493C29.5225 39.3144 29.0034 37.7515 27.8702 36.6652L18.9065 28.0656C16.0551 25.3322 17.627 20.5663 21.5678 20.0056L33.9532 18.2325C35.5178 18.0082 36.8704 17.041 37.5649 15.6463L43.1069 4.60066C44.8689 1.08933 49.9576 1.08933 51.7196 4.60066H51.7269Z" fill="#F7E9A8"/>
<path d="M51.7269 4.60066L57.2689 15.6463C57.9708 17.041 59.3234 18.0082 60.8807 18.2325L73.266 20.0056C77.2068 20.5663 78.7787 25.3322 75.9273 28.0656L66.9637 36.6652C65.8304 37.7515 65.3186 39.3144 65.5818 40.8493L67.6948 52.9883C68.3674 56.85 64.2512 59.7937 60.7271 57.9714L49.6505 52.2384C48.2541 51.5165 46.5798 51.5165 45.1833 52.2384L34.1067 57.9714C30.5826 59.7937 26.4664 56.85 27.139 52.9883L29.252 40.8493C29.5225 39.3144 29.0034 37.7515 27.8702 36.6652L18.9065 28.0656C16.0551 25.3322 17.627 20.5663 21.5678 20.0056L33.9532 18.2325C35.5178 18.0082 36.8704 17.041 37.5649 15.6463L43.1069 4.60066C44.8689 1.08933 49.9576 1.08933 51.7196 4.60066H51.7269Z" fill="#FF7900"/>
<path d="M197.953 178.702H196.973" stroke="#38CFD3" stroke-miterlimit="10"/>
<path d="M73.4196 27.0914L68.3382 31.9694L64.4632 35.691C63.3227 36.7703 62.8182 38.3403 63.0814 39.8752L63.447 42.0128L65.187 52.0071C65.8597 55.8689 61.7434 58.8125 58.2194 56.9832L47.5887 51.4885C47.5522 51.4955 47.5083 51.4955 47.4718 51.5025L49.3142 54.6354C50.0673 55.9249 49.1168 57.5369 47.6107 57.5369H42.2076C40.6942 57.5369 39.751 55.9249 40.5041 54.6354L42.3392 51.5025C42.3027 51.4955 42.2588 51.4955 42.2223 51.4885L31.5916 56.9832C28.0676 58.8125 23.9513 55.8619 24.624 52.0071L26.3641 42.0058L26.7296 39.8752C26.9928 38.3403 26.4883 36.7703 25.3478 35.691L21.4874 31.9834L16.3914 27.0914C13.5327 24.358 15.112 19.5992 19.0528 19.0315L20.8513 18.7792L31.4381 17.2583C33.0027 17.034 34.3553 16.0668 35.0572 14.6791L40.5918 3.6335C42.3539 0.122168 47.4425 0.122168 49.2045 3.6335L54.7392 14.6791C55.4338 16.0668 56.7937 17.034 58.3583 17.2583L68.9524 18.7792L70.7436 19.0315C74.6844 19.5922 76.2563 24.358 73.4049 27.0914H73.4196Z" stroke="#340D44" stroke-linecap="round" stroke-linejoin="round"/>
<path d="M44.9128 59.4081V73.2221" stroke="#340D44" stroke-linecap="round" stroke-linejoin="round"/>
<path d="M76.6877 63.0808L76.5415 66.9075C76.5196 67.3911 76.7462 67.8537 77.141 68.141L80.2629 70.4329C81.2573 71.1618 80.9721 72.6896 79.7804 73.0261L76.037 74.0704C75.5618 74.2035 75.1889 74.5539 75.028 75.0095L73.7778 78.64C73.383 79.7964 71.8111 79.9997 71.1238 78.9904L68.9597 75.8085C68.6892 75.409 68.2285 75.1637 67.7387 75.1567L63.8491 75.1076C62.6135 75.0936 61.9262 73.6849 62.6939 72.7317L65.0993 69.718C65.4064 69.3395 65.4941 68.8349 65.3479 68.3723L64.1927 64.7138C63.8271 63.5504 64.9677 62.4781 66.1302 62.8986L69.7859 64.2162C70.2465 64.3844 70.7656 64.3143 71.1604 64.034L74.3335 61.8193C75.3424 61.1184 76.7316 61.8543 76.6877 63.0738V63.0808Z" fill="#FF7900"/>
<path d="M9.22635 61.8543L14.3954 64.7839C15.0461 65.1554 15.8431 65.1834 16.523 64.861L21.9041 62.3309C23.615 61.5249 25.5232 63.0037 25.1284 64.826L23.8928 70.5731C23.7393 71.295 23.9513 72.0519 24.4704 72.5916L28.5794 76.8458C29.8881 78.1985 29.0473 80.4412 27.161 80.6375L21.2242 81.2612C20.4784 81.3383 19.8131 81.7729 19.4549 82.4247L16.6108 87.583C15.7042 89.2231 13.2841 89.1319 12.5091 87.4288L10.0745 82.0672C9.76738 81.3874 9.13861 80.9038 8.40016 80.7706L2.53651 79.7053C0.67213 79.3689 0.00680321 77.0701 1.41788 75.8155L5.84853 71.8837C6.40419 71.3861 6.68201 70.6502 6.58697 69.9143L5.80466 64.0901C5.55608 62.2398 7.574 60.9082 9.21904 61.8403L9.22635 61.8543Z" fill="#340D44"/>
<path d="M151.672 95.2997C136.94 95.2997 126.229 99.7571 116.125 107.383C110.093 103.107 102.694 100.584 94.7027 100.584C85.6148 100.584 77.2872 103.843 70.8825 109.233C52.8382 97.8228 50.8203 85.025 49.9868 77.3085C49.8187 75.7946 48.4807 74.6732 46.938 74.7503L41.842 75.0237C39.985 75.1218 38.4935 76.5656 38.3545 78.3878C33.9751 134.352 72.608 166.493 90.4183 172.556C91.7563 186.825 96.6621 199.77 104.522 210.045H124.876C126.807 194.892 135.624 183.314 151.687 183.314C167.75 183.314 176.567 194.892 178.505 210.045H198.852C208.167 197.871 213.336 181.947 213.336 164.503C213.336 126.285 190.525 95.3067 151.687 95.3067L151.672 95.2997ZM95.602 126.516C92.9261 126.516 90.8058 124.105 91.3761 121.372C91.7051 119.767 93.0138 118.47 94.6369 118.12C97.4298 117.517 99.9157 119.599 99.9157 122.255C99.9157 124.603 97.9782 126.509 95.602 126.509V126.516ZM148.477 134.527C147.512 138.473 145.429 142.033 142.694 144.914C141.985 145.615 141.298 146.33 140.508 146.946C139.77 147.612 138.929 148.159 138.117 148.712C136.421 149.764 134.652 150.696 132.743 151.292C132.283 151.474 131.786 151.593 131.31 151.719C130.821 151.838 130.345 151.978 129.848 152.042L128.371 152.28L126.88 152.378C124.884 152.441 122.888 152.217 120.987 151.663C117.222 150.493 115.065 147.023 116.607 147.85C118.15 148.67 119.802 149.231 121.499 149.448C124.898 149.883 128.327 149.266 131.398 147.899C137.532 145.201 142.35 139.657 143.893 133.448C144.675 130.35 144.544 127.084 143.345 124.28C142.16 121.47 139.799 119.185 136.838 117.966C135.346 117.363 133.723 117.019 132.042 116.886C130.36 116.753 128.642 116.935 126.938 117.258C125.118 117.601 123.341 118.211 121.63 119.031C120.958 119.346 120.387 118.449 120.98 118.008C122.581 116.809 124.365 115.821 126.295 115.092C128.115 114.433 130.053 113.95 132.056 113.866C134.052 113.76 136.107 113.964 138.088 114.552C142.051 115.737 145.604 118.659 147.417 122.472C148.338 124.364 148.836 126.418 149.018 128.472C149.194 130.532 148.931 132.572 148.485 134.541L148.477 134.527Z" fill="#3B1742"/>
<path d="M219.938 145.012C211.259 145.012 204.204 138.066 204.204 129.53H205.973C205.973 137.106 212.239 143.274 219.945 143.274C223.674 143.274 227.183 141.844 229.823 139.251L231.073 140.477C228.105 143.4 224.149 145.012 219.945 145.012H219.938Z" fill="#3B1742"/>
<path d="M238.903 132.088C238.903 132.088 238.962 132.109 238.977 132.116C238.977 132.137 238.991 132.158 238.998 132.193C238.282 138.263 234.641 140.519 231.702 141.346C229.669 141.914 227.951 139.945 228.807 138.045C230.071 135.249 232.85 131.934 238.911 132.088H238.903Z" fill="#3B1742"/>
<path d="M78.574 64.5316L78.4278 68.3583C78.4058 68.8419 78.6325 69.3045 79.0273 69.5919L82.1492 71.8837C83.1436 72.6126 82.8584 74.1405 81.6667 74.4769L77.9233 75.5212C77.4481 75.6543 77.0752 76.0048 76.9144 76.4603L75.6641 80.0908C75.2693 81.2472 73.6974 81.4505 73.0101 80.4412L70.846 77.2593C70.5754 76.8598 70.1148 76.6145 69.625 76.6075L65.7354 76.5584C64.4998 76.5444 63.8125 75.1357 64.5802 74.1825L66.9856 71.1688C67.2927 70.7903 67.3804 70.2857 67.2342 69.8231L66.079 66.1646C65.7134 65.0012 66.854 63.9289 68.0165 64.3494L71.6721 65.667C72.1328 65.8352 72.6519 65.7651 73.0467 65.4848L76.2198 63.2701C77.2287 62.5692 78.6179 63.3051 78.574 64.5246V64.5316Z" stroke="#340D44" stroke-linecap="round" stroke-linejoin="round"/>
<path d="M11.1127 63.3049L16.2818 66.2345C16.9325 66.606 17.7294 66.634 18.4094 66.3116L23.7905 63.7815C25.5013 62.9755 27.4096 64.4543 27.0148 66.2765L25.7792 72.0236C25.6256 72.7455 25.8377 73.5025 26.3568 74.0421L30.4657 78.2964C31.7744 79.649 30.9336 81.8918 29.0473 82.088L23.1105 82.7118C22.3648 82.7889 21.6995 83.2234 21.3412 83.8752L18.4971 89.0336C17.5905 90.6736 15.1705 90.5825 14.3955 88.8794L11.9608 83.5178C11.6537 82.838 11.025 82.3544 10.2865 82.2212L4.42286 81.1559C2.55848 80.8195 1.89316 78.5206 3.30424 77.2661L7.73488 73.3342C8.29054 72.8366 8.56837 72.1007 8.47332 71.3648L7.69102 65.5406C7.44243 63.6904 9.46035 62.3587 11.1054 63.2909L11.1127 63.3049Z" fill="#FF7900" stroke="#340D44" stroke-linecap="round" stroke-linejoin="round"/>
<path d="M211.099 167.11C211.099 184.554 205.93 200.485 196.622 212.659H176.275C174.33 197.499 165.52 185.921 149.45 185.921C133.38 185.921 124.569 197.499 122.647 212.659H102.292C94.425 202.377 89.5264 189.439 88.1884 175.163C70.3781 169.1 31.7452 136.966 36.1247 80.9948C36.2636 79.1796 37.7624 77.7358 39.6195 77.6307L44.7228 77.3643C46.2728 77.2872 47.6107 78.4086 47.7716 79.9225C48.6124 87.639 50.623 100.437 68.6746 111.854C75.0793 106.464 83.4069 103.205 92.4948 103.205C100.493 103.205 107.892 105.728 113.917 110.004C124.021 102.378 134.732 97.9207 149.464 97.9207C188.302 97.9207 211.113 128.892 211.113 167.11H211.099Z" stroke="#340D44" stroke-linecap="round" stroke-linejoin="round"/>
</svg>
